<?xml version="1.0" encoding="UTF-8"?>
<svg xmlns="http://www.w3.org/2000/svg" width="375" height="812" viewBox="0 0 375 812" font-family="'PingFang SC','Microsoft YaHei','Helvetica Neue',Arial,sans-serif">
<title>02 发布信息</title>
<rect x="0" y="0" width="375" height="812" rx="0" fill="#FFFFFF"/><text x="28" y="30" font-size="14" fill="#1A1A1A" font-weight="600">9:41</text><rect x="300" y="24" width="3" height="5" rx="1" fill="#1A1A1A"/><rect x="305" y="21" width="3" height="8" rx="1" fill="#1A1A1A"/><rect x="310" y="18" width="3" height="11" rx="1" fill="#1A1A1A"/><rect x="315" y="15" width="3" height="14" rx="1" fill="#1A1A1A"/><path d="M321 25.5 a9 9 0 0 1 13 0" fill="none" stroke="#1A1A1A" stroke-width="1.8" stroke-linecap="round" stroke-linejoin="round"/><path d="M324.3 29 a5 5 0 0 1 6.4 0" fill="none" stroke="#1A1A1A" stroke-width="1.8" stroke-linecap="round" stroke-linejoin="round"/><circle cx="327.5" cy="32.6" r="1.5" fill="#1A1A1A"/><rect x="339" y="17" width="21" height="11" rx="3.5" fill="none" stroke="#C4C4C4" stroke-width="1"/><rect x="340.6" y="18.6" width="18" height="7.8" rx="2" fill="#1A1A1A"/><rect x="361" y="20.5" width="1.8" height="4" rx="0.9" fill="#C4C4C4"/><rect x="0" y="44" width="375" height="44" rx="0" fill="#FFFFFF"/><path d="M29 58 L21 66 L29 74" fill="none" stroke="#1A1A1A" stroke-width="2" stroke-linecap="round" stroke-linejoin="round"/><line x1="21.5" y1="66" x2="36" y2="66" stroke="#1A1A1A" stroke-width="2" stroke-linecap="round"/><text x="187.5" y="72" font-size="17" fill="#1A1A1A" font-weight="600" text-anchor="middle">发布信息</text><rect x="267" y="48" width="92" height="32" rx="16" fill="#FFFFFF" stroke="#E8E8E8" stroke-width="1"/><circle cx="283" cy="64" r="1.8" fill="#1A1A1A"/><circle cx="290" cy="64" r="1.8" fill="#1A1A1A"/><circle cx="297" cy="64" r="1.8" fill="#1A1A1A"/><line x1="313" y1="56" x2="313" y2="72" stroke="#E8E8E8" stroke-width="1"/><circle cx="336" cy="64" r="6.5" fill="none" stroke="#1A1A1A" stroke-width="1.5"/><circle cx="336" cy="64" r="1.6" fill="#1A1A1A"/><line x1="0" y1="88" x2="375" y2="88" stroke="#EFEFEF" stroke-width="1"/><rect x="16" y="100" width="343" height="40" rx="10" fill="#F2F3F5"/><text x="102.75" y="124.5" font-size="13" fill="#666666" text-anchor="middle">寻物</text><rect x="187.5" y="102" width="169.5" height="36" rx="7" fill="#FFFFFF"/><text x="272.25" y="124.5" font-size="13" fill="#07C160" font-weight="600" text-anchor="middle">招领</text><text x="16" y="174.9" font-size="14" fill="#1A1A1A" font-weight="600">物品照片</text><rect x="16" y="186" width="88" height="88" rx="10" fill="#FFFFFF" stroke="#E5E7EB" stroke-width="1" stroke-dasharray="5 4"/><rect x="52" y="220.7" width="16" height="3" rx="1.5" fill="#C4C4C4"/><rect x="58.5" y="214.2" width="3" height="16" rx="1.5" fill="#C4C4C4"/><text x="60" y="254" font-size="10" fill="#999999" text-anchor="middle">添加照片</text><text x="16" y="308.9" font-size="14" fill="#1A1A1A" font-weight="600">物品名称</text><rect x="16" y="318" width="343" height="44" rx="8" fill="#F7F8FA"/><text x="30" y="344.9" font-size="14" fill="#B0B0B0">如：校园卡、宿舍钥匙</text><text x="16" y="392.9" font-size="14" fill="#1A1A1A" font-weight="600">物品分类</text><rect x="16" y="402" width="76" height="36" rx="18" fill="#07C160"/><text x="54" y="424.6" font-size="13" fill="#FFFFFF" font-weight="500" text-anchor="middle">证件卡类</text><rect x="100" y="402" width="50" height="36" rx="18" fill="#FFFFFF" stroke="#E5E7EB" stroke-width="1"/><text x="125" y="424.6" font-size="13" fill="#666666" text-anchor="middle">钥匙</text><rect x="158" y="402" width="50" height="36" rx="18" fill="#FFFFFF" stroke="#E5E7EB" stroke-width="1"/><text x="183" y="424.6" font-size="13" fill="#666666" text-anchor="middle">雨伞</text><rect x="216" y="402" width="50" height="36" rx="18" fill="#FFFFFF" stroke="#E5E7EB" stroke-width="1"/><text x="241" y="424.6" font-size="13" fill="#666666" text-anchor="middle">水杯</text><rect x="274" y="402" width="50" height="36" rx="18" fill="#FFFFFF" stroke="#E5E7EB" stroke-width="1"/><text x="299" y="424.6" font-size="13" fill="#666666" text-anchor="middle">耳机</text><rect x="332" y="402" width="50" height="36" rx="18" fill="#FFFFFF" stroke="#E5E7EB" stroke-width="1"/><text x="357" y="424.6" font-size="13" fill="#666666" text-anchor="middle">图书</text><text x="16" y="468.9" font-size="14" fill="#1A1A1A" font-weight="600">地点与时间</text><rect x="16" y="478" width="167" height="44" rx="8" fill="#F7F8FA"/><text x="30" y="504.6" font-size="13" fill="#B0B0B0">如：三教 201</text><rect x="192" y="478" width="167" height="44" rx="8" fill="#F7F8FA"/><text x="206" y="504.6" font-size="13" fill="#B0B0B0">09-23 09:30</text><text x="16" y="552.9" font-size="14" fill="#1A1A1A" font-weight="600">详细描述</text><rect x="16" y="562" width="343" height="84" rx="8" fill="#F7F8FA"/><text x="30" y="588" font-size="14" fill="#B0B0B0">补充物品特征，如颜色、品牌、有无挂件…</text><text x="345" y="632" font-size="12" fill="#C4C4C4" text-anchor="end">0/100</text><text x="16" y="672.9" font-size="14" fill="#1A1A1A" font-weight="600">联系方式</text><rect x="16" y="682" width="343" height="44" rx="8" fill="#F7F8FA"/><text x="30" y="708.5" font-size="13" fill="#B0B0B0">微信号 / 手机号（仅详情页可见）</text><rect x="16" y="740" width="343" height="48" rx="24" fill="#07C160"/><text x="187.5" y="769.6" font-size="16" fill="#FFFFFF" font-weight="600" text-anchor="middle">立即发布</text><rect x="132" y="794" width="111" height="4.5" rx="2.25" fill="#E0E0E0"/>
</svg>
